<svg width="58" height="58" viewBox="0 0 58 58" fill="none" xmlns="http://www.w3.org/2000/svg">
<path d="M48.7073 24.7247C48.188 24.2302 47.4984 23.9545 46.7813 23.9548C46.0642 23.955 45.3747 24.2312 44.8558 24.7261L41.6569 27.9324L30.1283 16.3955L33.3281 13.1953C33.8379 12.6844 34.1242 11.9921 34.1242 11.2704C34.1242 10.5487 33.8379 9.8564 33.3281 9.34553L24.9838 1.00117C24.4698 0.501474 23.7804 0.223241 23.0636 0.22622C22.3468 0.229199 21.6597 0.513152 21.1499 1.0171C14.8758 6.1651 13.9602 15.686 19.845 21.4967L21.7535 23.4052H3.79883C2.83776 23.4063 1.91636 23.7886 1.23678 24.4682C0.557198 25.1478 0.174927 26.0692 0.173828 27.0302V47.874C0.174927 48.8351 0.557198 49.7564 1.23678 50.436C1.91636 51.1156 2.83776 51.4979 3.79883 51.499H21.9345L25.7453 56.4824C26.1205 56.9762 26.6287 57.3527 27.2102 57.5679C27.7918 57.7831 28.4227 57.828 29.0289 57.6974C29.635 57.5668 30.1914 57.2661 30.6328 56.8305C31.0742 56.395 31.3822 55.8426 31.5208 55.2382L32.3766 51.499H35.5268C36.4836 51.4946 37.4002 51.1139 38.0786 50.4391C38.7569 49.7644 39.1424 48.8498 39.1518 47.893L39.1943 40.2456C41.2941 41.5038 43.6955 42.1697 46.1434 42.1728C50.2443 42.2733 54.2521 40.1166 57.0357 36.903C57.5414 36.3899 57.8249 35.6985 57.8249 34.9781C57.8249 34.2577 57.5414 33.5663 57.0357 33.0532L48.7073 24.7247ZM30.9319 47.874C30.5215 47.874 30.1232 48.0132 29.8022 48.269C29.4812 48.5248 29.2566 48.882 29.165 49.282L28.1601 53.673L24.27 48.5855C24.1008 48.3642 23.8829 48.1849 23.6332 48.0615C23.3835 47.9381 23.1086 47.8739 22.8301 47.874H3.79883V27.0302H25.3785L35.5859 37.2377L35.5269 47.8739L30.9319 47.874ZM53.1678 35.6449C51.3018 37.5021 48.7762 38.5448 46.1434 38.5448C43.5107 38.5448 40.9851 37.5021 39.1191 35.6449L22.4079 18.9337C21.4367 17.949 20.6794 16.7742 20.1836 15.483C19.6878 14.1918 19.4642 12.8121 19.5268 11.4305C19.5895 10.0488 19.9369 8.69496 20.5475 7.45392C21.158 6.21288 22.0184 5.1114 23.0748 4.2186L30.127 11.2704L26.9396 14.4582C26.6836 14.7093 26.4799 15.0088 26.3403 15.3392C26.2007 15.6695 26.128 16.0243 26.1264 16.383C26.1248 16.7417 26.1943 17.0971 26.3309 17.4287C26.4676 17.7604 26.6686 18.0616 26.9224 18.315L39.7364 31.1389L39.7373 31.1402C40.2476 31.6485 40.9387 31.9337 41.6589 31.9333C42.3792 31.9328 43.0699 31.6468 43.5796 31.138L46.7833 27.9267L53.8347 34.978L53.1678 35.6449Z" fill="white"/>
<path d="M9.23828 34.2798C10.2393 34.2798 11.0508 33.4683 11.0508 32.4673C11.0508 31.4663 10.2393 30.6548 9.23828 30.6548C8.23726 30.6548 7.42578 31.4663 7.42578 32.4673C7.42578 33.4683 8.23726 34.2798 9.23828 34.2798Z" fill="white"/>
</svg>
