<svg width="12" height="14" viewBox="0 0 12 14" fill="none" xmlns="http://www.w3.org/2000/svg">
<path fill-rule="evenodd" clip-rule="evenodd" d="M4 2V1.66667C4 1.22467 4.176 0.800668 4.48867 0.488668C4.80067 0.176001 5.22467 0 5.66667 0H6.33333C6.77533 0 7.19934 0.176001 7.512 0.488668C7.82467 0.800668 8 1.22467 8 1.66667V2H11.3333C11.7013 2 12 2.29867 12 2.66667C12 3.03467 11.7013 3.33333 11.3333 3.33333H10.6667V10.6667C10.6667 12.14 9.47333 13.3333 8 13.3333C6.77867 13.3333 5.222 13.3333 4 13.3333C2.52733 13.3333 1.33333 12.14 1.33333 10.6667V3.33333H0.666667C0.298667 3.33333 0 3.03467 0 2.66667C0 2.29867 0.298667 2 0.666667 2H4ZM9.33333 3.33333H2.66667V10.6667C2.66667 11.4033 3.264 12 4 12H8C8.73667 12 9.33333 11.4033 9.33333 10.6667V3.33333ZM6 6.39067L6.862 5.52867C7.12267 5.26867 7.54467 5.26867 7.80467 5.52867C8.06533 5.78933 8.06533 6.21133 7.80467 6.47133L6.94333 7.33333L7.80467 8.19533C8.06533 8.456 8.06533 8.878 7.80467 9.138C7.54467 9.39867 7.12267 9.39867 6.862 9.138L6 8.27667L5.138 9.138C4.878 9.39867 4.456 9.39867 4.19533 9.138C3.93533 8.878 3.93533 8.456 4.19533 8.19533L5.05733 7.33333L4.19533 6.47133C3.93533 6.21133 3.93533 5.78933 4.19533 5.52867C4.456 5.26867 4.878 5.26867 5.138 5.52867L6 6.39067ZM6.66667 2V1.66667C6.66667 1.57867 6.632 1.494 6.56934 1.43133C6.50667 1.36867 6.422 1.33333 6.33333 1.33333C6.11533 1.33333 5.88467 1.33333 5.66667 1.33333C5.57867 1.33333 5.494 1.36867 5.43134 1.43133C5.36867 1.494 5.33333 1.57867 5.33333 1.66667V2H6.66667Z" fill="#979797"/>
</svg>
