<svg width="60" height="60" viewBox="0 0 60 60" fill="none" xmlns="http://www.w3.org/2000/svg">
<path d="M56.3672 47.6953V5.27344C56.3672 2.36566 54.0015 0 51.0938 0H8.90625C5.99848 0 3.63281 2.36566 3.63281 5.27344V47.6953C3.63281 50.6031 5.99848 52.9688 8.90625 52.9688H10.6641V58.2422C10.6641 59.213 11.4511 60 12.4219 60H19.4531C20.4239 60 21.2109 59.213 21.2109 58.2422V52.9688H38.7891V58.2422C38.7891 59.213 39.5761 60 40.5469 60H47.5781C48.5489 60 49.3359 59.213 49.3359 58.2422V52.9688H51.0938C54.0015 52.9688 56.3672 50.6031 56.3672 47.6953ZM17.6953 56.4844H14.1797V52.9688H17.6953V56.4844ZM45.8203 56.4844H42.3047V52.9688H45.8203V56.4844ZM52.8516 47.6953C52.8516 48.6646 52.063 49.4531 51.0938 49.4531C49.393 49.4531 11.8489 49.4531 8.90625 49.4531C7.93699 49.4531 7.14844 48.6646 7.14844 47.6953V5.27344C7.14844 4.30418 7.93699 3.51562 8.90625 3.51562H51.0938C52.063 3.51562 52.8516 4.30418 52.8516 5.27344V47.6953Z" fill="#243444"/>
<path d="M47.5781 10.6641C46.6073 10.6641 45.8203 11.4511 45.8203 12.4219V26.4844C45.8203 27.4552 46.6073 28.2422 47.5781 28.2422C48.5489 28.2422 49.3359 27.4552 49.3359 26.4844V12.4219C49.3359 11.4511 48.5489 10.6641 47.5781 10.6641Z" fill="#243444"/>
<path d="M41.7898 21.7257C41.1035 21.0393 39.9904 21.0393 39.3039 21.7257L36.3032 24.7266H31.7579V20.1812L34.7586 17.1805C35.4451 16.494 35.4451 15.3811 34.7586 14.6946C34.0722 14.0081 32.9592 14.0081 32.2727 14.6946L30.0001 16.9672L27.7273 14.6945C27.041 14.008 25.9279 14.008 25.2414 14.6945C24.5549 15.381 24.5549 16.4939 25.2414 17.1804L28.2422 20.1812V24.7266H23.6969L20.6961 21.7257C20.0097 21.0393 18.8967 21.0393 18.2102 21.7257C17.5237 22.4122 17.5237 23.5252 18.2102 24.2116L20.4829 26.4844L18.2103 28.757C17.5238 29.4435 17.5238 30.5564 18.2103 31.2429C18.8967 31.9293 20.0097 31.9294 20.6962 31.2429L23.6969 28.2422H28.2422V32.7875L25.2415 35.7882C24.5551 36.4747 24.5551 37.5877 25.2415 38.2741C25.9279 38.9606 27.041 38.9606 27.7274 38.2741L30.0001 36.0015L32.2728 38.2743C32.9592 38.9606 34.0722 38.9607 34.7587 38.2743C35.4452 37.5878 35.4452 36.4748 34.7587 35.7884L31.7579 32.7875V28.2422H36.3032L39.3041 31.243C39.9904 31.9294 41.1035 31.9295 41.7899 31.243C42.4764 30.5565 42.4764 29.4436 41.7899 28.7571L39.5172 26.4844L41.7898 24.2118C42.4763 23.5253 42.4763 22.4122 41.7898 21.7257Z" fill="#243444"/>
</svg>
