<svg width="24" height="24" viewBox="0 0 24 24" fill="none" xmlns="http://www.w3.org/2000/svg">
<g clip-path="url(#clip0)">
<path d="M20.497 2.7168H19.7952V19.9575C19.7952 21.1028 18.8629 22.0351 17.7176 22.0351H10.6073H4.95312V22.6742C4.95312 23.4061 5.54711 24 6.27894 24H13.3867H20.4945C21.2263 24 21.8203 23.4061 21.8203 22.6742V4.04261C21.8203 3.31078 21.2288 2.7168 20.497 2.7168Z" fill="#D9534F"/>
<path d="M10.6088 21.2832H17.7166C18.4484 21.2832 19.0424 20.6892 19.0424 19.9574V2.71679V1.32581C19.0424 0.593985 18.4484 0 17.7166 0H10.6088H8.24541V0.438596C8.2504 0.483709 8.25293 0.531328 8.25293 0.578947V3.46867V4.21053C8.25293 5.2406 7.41583 6.07769 6.38576 6.07769H5.6439H2.75418C2.71658 6.07769 2.67648 6.07519 2.63889 6.07268H2.17773V19.9574C2.17773 20.6892 2.77172 21.2832 3.50355 21.2832H4.95719H10.6088ZM10.877 16.7769H6.2429C5.89704 16.7769 5.61633 16.4962 5.61633 16.1504C5.61633 15.8045 5.89704 15.5238 6.2429 15.5238H10.8795C11.2254 15.5238 11.5061 15.8045 11.5061 16.1504C11.5061 16.4962 11.2229 16.7769 10.877 16.7769ZM15.5136 13.579H6.2429C5.89704 13.579 5.61633 13.2982 5.61633 12.9524C5.61633 12.6065 5.89704 12.3258 6.2429 12.3258H15.5136C15.8595 12.3258 16.1402 12.6065 16.1402 12.9524C16.1402 13.2982 15.8595 13.579 15.5136 13.579ZM6.2429 8.92982H15.5136C15.8595 8.92982 16.1402 9.21053 16.1402 9.55639C16.1402 9.90226 15.8595 10.183 15.5136 10.183H6.2429C5.89704 10.183 5.61633 9.90226 5.61633 9.55639C5.61633 9.21053 5.89704 8.92982 6.2429 8.92982Z" fill="#D9534F"/>
<path d="M2.75361 5.32581H6.38518C6.38769 5.32581 6.3927 5.32581 6.39521 5.32581C7.00172 5.3208 7.49295 4.82957 7.49796 4.22306C7.49796 4.22055 7.49796 4.21554 7.49796 4.21303V0.578947C7.49796 0.243108 7.22227 0.02005 6.93658 0.02005C6.79874 0.02005 6.6609 0.0701754 6.54561 0.185464L2.35762 4.37343C2.00674 4.72431 2.25486 5.32581 2.75361 5.32581Z" fill="#D9534F"/>
</g>
<defs>
<clipPath id="clip0">
<rect width="24" height="24" fill="white"/>
</clipPath>
</defs>
</svg>
