<svg width="18" height="18" viewBox="0 0 18 18" fill="none" xmlns="http://www.w3.org/2000/svg">
<path d="M10.2023 12.6818C10.0183 12.6989 9.83354 12.6574 9.67456 12.5631C9.55841 12.4439 9.50272 12.2783 9.52321 12.1131C9.5275 11.9756 9.54392 11.8387 9.57229 11.704C9.59975 11.5496 9.63522 11.3966 9.67864 11.2458L10.1614 9.58493C10.2112 9.42099 10.2441 9.25238 10.2596 9.08173C10.2596 8.89766 10.2841 8.77081 10.2841 8.6972C10.2944 8.36908 10.1543 8.05422 9.90364 7.8422C9.59536 7.60552 9.21145 7.48919 8.82364 7.51493C8.54573 7.51911 8.26997 7.5646 8.00545 7.64993C7.71636 7.73993 7.41226 7.84765 7.09318 7.97312L6.9541 8.51312C7.04818 8.48039 7.16275 8.44358 7.29364 8.40266C7.41852 8.36567 7.54796 8.34637 7.67818 8.34539C7.86085 8.32559 8.04472 8.37045 8.19772 8.4722C8.30164 8.59619 8.3504 8.75728 8.33272 8.91812C8.33226 9.05568 8.31718 9.19283 8.28772 9.3272C8.25907 9.47039 8.22226 9.62173 8.17726 9.78127L7.69045 11.4504C7.65122 11.6055 7.61982 11.7625 7.59637 11.9208C7.57725 12.0563 7.56768 12.193 7.56772 12.3299C7.56572 12.6603 7.71678 12.9729 7.9768 13.1767C8.28983 13.4171 8.67922 13.5362 9.07314 13.5122C9.35053 13.5179 9.62696 13.4778 9.89134 13.3935C10.1232 13.3144 10.4327 13.2012 10.82 13.054L10.9509 12.5385C10.846 12.582 10.738 12.6176 10.6277 12.6449C10.4883 12.6767 10.3451 12.6891 10.2023 12.6818Z" fill="white"/>
<path d="M10.7139 4.80694C10.4913 4.60247 10.1979 4.49247 9.89572 4.50013C9.5937 4.49331 9.30063 4.60321 9.07753 4.80694C8.66859 5.15956 8.62293 5.77694 8.97558 6.18591C9.00701 6.22237 9.04108 6.25643 9.07753 6.28786C9.54342 6.70457 10.248 6.70457 10.7139 6.28786C11.1228 5.93176 11.1657 5.31161 10.8096 4.90267C10.78 4.8686 10.748 4.83661 10.7139 4.80694Z" fill="white"/>
<path d="M9 0C4.02943 0 0 4.02943 0 9C0 13.9706 4.02943 18 9 18C13.9706 18 18 13.9706 18 9C18 4.02943 13.9706 0 9 0ZM9 17.1818C4.4813 17.1818 0.818191 13.5187 0.818191 9C0.818191 4.4813 4.4813 0.818191 9 0.818191C13.5187 0.818191 17.1818 4.4813 17.1818 9C17.1818 13.5187 13.5187 17.1818 9 17.1818Z" fill="white"/>
</svg>
