<svg width="25" height="23" viewBox="0 0 25 23" fill="none" xmlns="http://www.w3.org/2000/svg">
<path d="M10.9495 12.0853C10.8758 12.0853 9.25355 12.0853 8.51617 12.0853C8.1229 12.0853 8 11.9379 8 11.5692C8 10.586 8 9.57823 8 8.59506C8 8.20178 8.14748 8.07889 8.51617 8.07889H10.9495C10.9495 8.00515 10.9495 6.57954 10.9495 5.91589C10.9495 4.93271 11.1216 3.99869 11.6132 3.13841C12.1294 2.25355 12.8667 1.66365 13.8008 1.31953C14.4152 1.09832 15.0297 1 15.6934 1H18.1022C18.4463 1 18.5938 1.14748 18.5938 1.49159V4.29365C18.5938 4.63776 18.4463 4.78524 18.1022 4.78524C17.4385 4.78524 16.7749 4.78524 16.1112 4.80982C15.4476 4.80982 15.1035 5.12935 15.1035 5.81758C15.0789 6.55496 15.1035 7.26776 15.1035 8.02973H17.9547C18.348 8.02973 18.4954 8.17721 18.4954 8.57048V11.5446C18.4954 11.9379 18.3725 12.0608 17.9547 12.0608C17.0698 12.0608 15.1772 12.0608 15.1035 12.0608V20.0737C15.1035 20.4915 14.9806 20.639 14.5381 20.639C13.5058 20.639 12.498 20.639 11.4657 20.639C11.097 20.639 10.9495 20.4915 10.9495 20.1228C10.9495 17.542 10.9495 12.1591 10.9495 12.0853Z" fill="white"/>
</svg>
