<svg width="32" height="32" viewBox="0 0 32 32" fill="none" xmlns="http://www.w3.org/2000/svg">
<path d="M16.0022 16.6168C20.5736 16.6168 24.3106 12.8799 24.3106 8.3084C24.3106 3.73694 20.5736 0 16.0022 0C11.4307 0 7.69385 3.73694 7.69385 8.3084C7.69385 12.8799 11.4308 16.6168 16.0022 16.6168Z" fill="white"/>
<path d="M30.2606 23.2562C30.0429 22.712 29.7527 22.2041 29.4262 21.7324C27.7572 19.2652 25.1813 17.6326 22.2788 17.2335C21.916 17.1973 21.517 17.2698 21.2267 17.4875C19.7029 18.6122 17.8888 19.1927 16.0022 19.1927C14.1155 19.1927 12.3015 18.6122 10.7776 17.4875C10.4874 17.2698 10.0883 17.1609 9.7255 17.2335C6.823 17.6326 4.21077 19.2652 2.57814 21.7324C2.25161 22.2041 1.96133 22.7483 1.74369 23.2562C1.63487 23.4739 1.67112 23.7279 1.77994 23.9456C2.07022 24.4535 2.433 24.9615 2.75953 25.3968C3.26744 26.0862 3.81168 26.703 4.42848 27.2834C4.9364 27.7914 5.51689 28.263 6.09744 28.7347C8.96362 30.8753 12.4104 32 15.9659 32C19.5215 32 22.9682 30.8752 25.8344 28.7347C26.4149 28.2993 26.9954 27.7914 27.5033 27.2834C28.0838 26.703 28.6643 26.0861 29.1723 25.3968C29.5351 24.9252 29.8617 24.4535 30.1519 23.9456C30.3332 23.7279 30.3695 23.4739 30.2606 23.2562Z" fill="white"/>
</svg>
