<svg width="21" height="22" viewBox="0 0 21 22" fill="none" xmlns="http://www.w3.org/2000/svg">
<path d="M20.7259 8.35488L10.957 0.168837C10.6884 -0.0562791 10.3074 -0.0562791 10.0436 0.168837L0.274726 8.35488C-0.0427625 8.62093 -0.091607 9.10186 0.162384 9.43442C0.362646 9.69535 0.694788 9.78233 0.978086 9.67488V21.2326C0.978086 21.6572 1.30534 22 1.71075 22H8.06053H12.945H19.2947C19.7002 22 20.0274 21.6572 20.0274 21.2326V9.67488C20.1056 9.70558 20.1886 9.72093 20.2716 9.72093C20.4865 9.72093 20.7015 9.62372 20.8431 9.43442C21.0922 9.10186 21.0385 8.62093 20.7259 8.35488ZM12.2074 20.4651H8.78831V16.8837H12.2074V20.4651ZM18.5572 20.4651H13.6728V16.1163C13.6728 15.6916 13.3455 15.3488 12.9401 15.3488H8.05564C7.65023 15.3488 7.32298 15.6916 7.32298 16.1163V20.4651H2.43853V8.50326L10.4979 1.74977L18.5572 8.50326V20.4651Z" fill="#243444"/>
</svg>
