<svg width="25" height="23" viewBox="0 0 25 23" fill="none" xmlns="http://www.w3.org/2000/svg">
<path d="M19.8137 5.70068C19.546 5.70068 19.3281 5.91854 19.3281 6.18623C19.3281 6.45393 19.546 6.67178 19.8137 6.67178C20.0814 6.67178 20.2992 6.45396 20.2992 6.18623C20.2992 5.9185 20.0814 5.70068 19.8137 5.70068Z" fill="white"/>
<path d="M13.9998 7.69556C11.6263 7.69556 9.69531 9.62657 9.69531 12.0001C9.69531 14.3736 11.6263 16.3046 13.9998 16.3046C16.3734 16.3046 18.3044 14.3736 18.3044 12.0001C18.3044 9.62661 16.3734 7.69556 13.9998 7.69556Z" fill="white"/>
<path d="M18.5173 2H9.4827C6.45953 2 4 4.45953 4 7.48273V16.5173C4 19.5405 6.45953 22 9.4827 22H18.5173C21.5405 22 24 19.5405 24 16.5173V7.48273C24 4.45953 21.5405 2 18.5173 2ZM14 17.4856C10.9752 17.4856 8.51441 15.0248 8.51441 12C8.51441 8.9752 10.9752 6.51445 14 6.51445C17.0248 6.51445 19.4856 8.97523 19.4856 12C19.4856 15.0248 17.0248 17.4856 14 17.4856ZM19.8137 7.85297C18.8947 7.85297 18.1471 7.10531 18.1471 6.18633C18.1471 5.26734 18.8947 4.51965 19.8137 4.51965C20.7327 4.51965 21.4804 5.2673 21.4804 6.18629C21.4804 7.10527 20.7327 7.85297 19.8137 7.85297Z" fill="white"/>
</svg>
