<svg width="20" height="20" viewBox="0 0 20 20" fill="none" xmlns="http://www.w3.org/2000/svg">
<path d="M19.9985 19.9988V12.6742C19.9985 9.07443 19.2235 6.32458 15.0238 6.32458C12.9989 6.32458 11.649 7.42452 11.099 8.47446H11.049V6.64957H7.07422V19.9988H11.224V13.3742C11.224 11.6243 11.549 9.94938 13.6988 9.94938C15.8237 9.94938 15.8487 11.9243 15.8487 13.4742V19.9738H19.9985V19.9988Z" fill="white"/>
<path d="M0.324219 6.64978H4.47398V19.999H0.324219V6.64978Z" fill="white"/>
<path d="M2.39986 0C1.07494 0 0 1.07494 0 2.39986C0 3.72479 1.07494 4.82472 2.39986 4.82472C3.72479 4.82472 4.79973 3.72479 4.79973 2.39986C4.79973 1.07494 3.72479 0 2.39986 0Z" fill="white"/>
</svg>
