<svg width="21" height="20" viewBox="0 0 21 20" fill="none" xmlns="http://www.w3.org/2000/svg">
<path d="M18.0082 3.87214C16.4033 2.23567 14.2684 1.33331 11.9985 1.33331C9.72867 1.33331 7.59381 2.23465 5.98891 3.87214C4.38401 5.50963 3.49906 7.68547 3.49906 9.99998V11.3183L1.3532 9.13025C1.15821 8.93143 0.841229 8.93143 0.646241 9.13025C0.451253 9.32908 0.451253 9.65229 0.646241 9.85112L3.64605 12.9099C3.74405 13.0099 3.87204 13.0588 4.00003 13.0588C4.12802 13.0588 4.25601 13.0088 4.35401 12.9099L7.35382 9.85112C7.54881 9.65229 7.54881 9.32908 7.35382 9.13025C7.15883 8.93143 6.84185 8.93143 6.64686 9.13025L4.501 11.3183V9.99998C4.501 5.78288 7.86479 2.35292 12.0005 2.35292C16.1363 2.35292 19.5001 5.78288 19.5001 9.99998C19.5001 14.2171 16.1363 17.647 12.0005 17.647C11.7245 17.647 11.5006 17.8754 11.5006 18.1568C11.5006 18.4383 11.7245 18.6666 12.0005 18.6666C14.2704 18.6666 16.4053 17.7653 18.0102 16.1278C19.6151 14.4903 20.5 12.3145 20.5 9.99998C20.5 7.68547 19.6161 5.50861 18.0102 3.87214H18.0082Z" fill="white"/>
</svg>
