<svg width="16" height="20" viewBox="0 0 16 20" fill="none" xmlns="http://www.w3.org/2000/svg">
<path d="M9.65948 10.1992H6.42925C3.25275 10.1992 0.667969 12.7836 0.667969 15.9604V19.769H15.4208V15.9604C15.4208 12.7836 12.836 10.1992 9.65948 10.1992ZM1.78724 18.6497V15.9604C1.78724 13.4007 3.86984 11.3184 6.42925 11.3184H9.65948C12.2189 11.3184 14.3015 13.4007 14.3015 15.9604V18.6497H1.78724Z" fill="white"/>
<path d="M8.04493 0.666656C5.5885 0.666656 3.58984 2.66531 3.58984 5.12174C3.58984 7.57818 5.5885 9.57683 8.04493 9.57683C10.5014 9.57683 12.5 7.57818 12.5 5.12174C12.5 2.66531 10.5014 0.666656 8.04493 0.666656ZM8.04493 8.45756C6.20559 8.45756 4.70912 6.96109 4.70912 5.12174C4.70912 3.2824 6.20559 1.78593 8.04493 1.78593C9.88427 1.78593 11.3807 3.2824 11.3807 5.12174C11.3807 6.96109 9.88427 8.45756 8.04493 8.45756Z" fill="white"/>
</svg>
