<svg width="15" height="21" viewBox="0 0 15 21" fill="none" xmlns="http://www.w3.org/2000/svg">
<path d="M14.8247 17.3005L13.7593 5.57737C13.7292 5.25438 13.4588 5.00774 13.1345 5.00774H11.2566V3.75581C11.2566 2.74925 10.8673 1.80404 10.1599 1.0967C9.4526 0.389352 8.50739 0 7.50084 0C5.43013 0 3.74503 1.68511 3.74503 3.75581V5.00774H1.86712C1.54287 5.00774 1.27246 5.25438 1.24366 5.57737L0.178263 17.3005C0.114414 17.9991 0.349778 18.6977 0.82301 19.216C1.29624 19.7343 1.96978 20.031 2.67212 20.031H12.3308C13.0331 20.031 13.7067 19.7343 14.1799 19.216C14.6531 18.6977 14.8873 17.9991 14.8247 17.3005ZM4.99696 3.75581C4.99696 2.37492 6.11995 1.25194 7.50084 1.25194C8.17313 1.25194 8.80285 1.51109 9.27483 1.98181C9.74681 2.45254 10.0047 3.08352 10.0047 3.75581V5.00774H4.99696V3.75581ZM13.2547 18.3722C13.0144 18.6338 12.6864 18.779 12.3296 18.779H2.67212C2.31657 18.779 1.98731 18.6338 1.74819 18.3709C1.50782 18.108 1.39389 17.7687 1.42644 17.4132L2.43926 6.25968H3.74503V8.13758C3.74503 8.48312 4.02546 8.76355 4.371 8.76355C4.71653 8.76355 4.99696 8.48312 4.99696 8.13758V6.25968H10.0047V8.13758C10.0047 8.48312 10.2851 8.76355 10.6307 8.76355C10.9762 8.76355 11.2566 8.48312 11.2566 8.13758V6.25968H12.5624L13.5765 17.4144C13.609 17.7687 13.4951 18.1093 13.2547 18.3722Z" fill="white"/>
</svg>
