<svg width="60" height="60" viewBox="0 0 60 60" fill="none" xmlns="http://www.w3.org/2000/svg">
<path d="M59.0373 39.9103C58.3398 38.6832 57.1483 37.8057 55.7701 37.5028C54.4211 37.2057 52.9989 37.4841 51.8608 38.2688L47.9804 40.4466C45.5879 41.7891 43.4673 43.1222 41.5389 44.4975C41.8979 43.7607 41.9804 43.0116 41.7601 42.3028C41.4339 41.2519 40.3314 39.9507 36.9292 39.72C29.9298 39.2475 28.6089 37.9491 28.4804 37.8028C27.7183 36.9291 26.9373 36.2757 26.0945 35.805C16.3483 30.361 7.01076 38.5397 6.61795 38.8913L6.61701 38.8922L1.1692 41.6813C0.833574 41.8528 0.581386 42.1519 0.467949 42.5128C0.355449 42.8728 0.392011 43.2628 0.569199 43.5957L7.94639 57.4107C8.1292 57.7538 8.44701 58.0069 8.82295 58.1072C8.94295 58.1391 9.06576 58.155 9.18764 58.155C9.44732 58.155 9.70514 58.0829 9.93014 57.9422L15.4295 54.5222C15.4483 54.511 15.4633 54.495 15.4811 54.4829C15.5008 54.4725 15.5233 54.465 15.5429 54.4538C16.0033 54.2007 16.5564 54.1997 17.0279 54.451C23.6879 57.9938 27.7923 58.7794 30.1229 58.7794C30.6761 58.7794 31.1298 58.7354 31.4936 58.6735C32.8511 58.6041 44.8858 57.6629 57.3264 46.0875L58.3445 45.0694C59.7058 43.7044 59.9908 41.5838 59.0373 39.9103ZM9.7192 54.7594L3.72389 43.5319L6.86451 41.9241L12.8158 52.8347L9.7192 54.7594ZM56.3233 43.11L55.3726 44.0625C43.2967 55.2966 31.4045 55.861 31.2883 55.8657C31.2161 55.8675 31.1448 55.876 31.0736 55.8891C29.8858 56.1141 26.2698 56.1816 18.3479 51.9657C17.6983 51.6197 16.9904 51.4472 16.2836 51.4472C15.9873 51.4472 15.6901 51.4772 15.3976 51.5391L9.3517 40.3107C11.6561 38.626 18.2289 34.6322 24.7229 38.2594C25.2789 38.5707 25.8151 39.0253 26.3608 39.6507C27.7154 41.205 31.1101 42.1453 36.7389 42.525C38.3954 42.6375 39.002 43.0303 39.0686 43.1025C39.0667 43.1869 38.9045 43.6247 38.1236 44.2435C36.2495 45.7894 31.2676 47.5378 25.8845 45.646C25.2395 45.4191 24.5223 45.691 24.1895 46.2891C23.8567 46.8882 24.0039 47.6391 24.5373 48.0685C24.7576 48.2185 24.9948 48.3253 25.2404 48.4172C26.1545 48.7575 27.1051 48.9872 28.0764 49.0716C38.2042 49.9528 42.9508 46.8947 42.9508 46.8947L49.3567 42.8982L53.298 40.6866C53.342 40.6613 53.3861 40.6341 53.4273 40.605C53.9364 40.2413 54.5551 40.1147 55.1654 40.2497C55.7617 40.381 56.2586 40.74 56.5708 41.2632C56.9008 41.8153 56.7779 42.6535 56.3233 43.11Z" fill="#243444"/>
<path d="M36.5588 22.8525C39.8072 22.8525 42.45 20.2097 42.45 16.9613C42.45 13.7128 39.8072 11.07 36.5588 11.07C33.3103 11.07 30.6685 13.7128 30.6685 16.9613C30.6685 20.2097 33.3103 22.8525 36.5588 22.8525ZM36.5588 13.8825C38.2566 13.8825 39.6375 15.2634 39.6375 16.9613C39.6375 18.6591 38.2556 20.04 36.5588 20.04C34.8619 20.04 33.481 18.6591 33.481 16.9613C33.481 15.2634 34.8619 13.8825 36.5588 13.8825Z" fill="#243444"/>
<path d="M22.9325 20.4329L23.9544 20.6888C24.1138 21.2297 24.3088 21.7604 24.5385 22.2769L23.9394 23.0935C23.1782 24.1304 23.225 25.5432 24.0529 26.5285L25.0625 27.7304C25.8894 28.7138 27.2732 29.0035 28.4263 28.4335L29.3713 27.9647C30.4429 28.6679 31.5997 29.2032 32.826 29.5651L33.0613 30.5494C33.3575 31.801 34.4638 32.6794 35.7519 32.6869L37.3204 32.6954H37.3372C38.616 32.6954 39.725 31.831 40.0354 30.5869L40.2904 29.5651C41.435 29.2276 42.5197 28.7382 43.5313 28.1016L44.4247 28.5788C45.5582 29.1854 46.9494 28.9388 47.8082 27.9797L48.8544 26.8097C49.7113 25.8516 49.8022 24.4416 49.0738 23.3804L48.4738 22.5066C48.7466 21.9207 48.9763 21.3151 49.1591 20.6935L50.1735 20.4469C51.4213 20.1422 52.295 19.0322 52.2969 17.7451V16.1757C52.2969 14.8894 51.4241 13.7785 50.1763 13.4738L49.1591 13.2254C48.9988 12.6854 48.8047 12.1557 48.5769 11.6419L49.1891 10.7972C49.9447 9.75474 49.8885 8.34287 49.056 7.36412L48.0397 6.16787C47.2063 5.18818 45.8225 4.90693 44.6722 5.48256L43.7366 5.95224C42.665 5.25099 41.51 4.71756 40.2857 4.35662L40.0382 3.34224C39.7316 2.09349 38.6197 1.22162 37.3354 1.22162H35.766C34.4816 1.22162 33.3697 2.09349 33.0632 3.34412L32.8147 4.36037C31.6804 4.69506 30.6041 5.18068 29.6 5.80881L28.6757 5.32131C27.5375 4.72131 26.1482 4.97443 25.296 5.93818L24.2554 7.11381C23.4032 8.07662 23.3197 9.48662 24.0538 10.5441L24.6472 11.3991C24.3716 11.9897 24.1391 12.6001 23.9544 13.2244L22.9682 13.4588C21.7175 13.756 20.8382 14.8632 20.8307 16.1485L20.8213 17.7179C20.8185 19.0041 21.6847 20.1207 22.9325 20.4329ZM25.431 15.7651C25.9541 15.6404 26.361 15.2279 26.4782 14.7038C26.6919 13.7466 27.0416 12.8269 27.516 11.9682C27.7747 11.4994 27.7457 10.9247 27.44 10.4851L26.3647 8.97849L27.3679 7.80943L29.0357 8.68881C29.5082 8.93912 30.0829 8.89787 30.516 8.58474C31.655 7.76162 32.9263 7.18787 34.2941 6.88224C34.8163 6.76506 35.226 6.36287 35.3525 5.84349L35.7697 4.03506L37.31 4.01068L37.7563 5.84068C37.8829 6.36099 38.2935 6.76412 38.8166 6.88037C40.2575 7.20099 41.5888 7.81693 42.7729 8.70943C43.2004 9.03099 43.7713 9.08255 44.2504 8.84349L45.8994 7.98943L46.9147 9.14724L45.8085 10.6726C45.4944 11.1057 45.4541 11.6804 45.7044 12.1547C46.1263 12.9554 46.4422 13.8122 46.641 14.701C46.7582 15.2222 47.1604 15.6329 47.6788 15.7594L49.4872 16.201L49.5107 17.716L47.6807 18.1613C47.1604 18.2879 46.7572 18.6985 46.641 19.2216C46.4282 20.1732 46.0822 21.0872 45.6135 21.9385C45.3566 22.4044 45.3847 22.9744 45.6857 23.4132L46.76 24.9366L45.7522 26.0991L44.1116 25.2226C43.6354 24.9694 43.0588 25.0088 42.6219 25.3247C41.4772 26.1563 40.1985 26.7338 38.8222 27.0413C38.3029 27.1576 37.8932 27.5569 37.7647 28.0735L37.3372 29.8819L35.7979 29.8969L35.3666 28.0885C35.2419 27.5654 34.8294 27.1594 34.3044 27.0422C32.8616 26.7216 31.5294 26.1047 30.3444 25.2104C30.095 25.0229 29.7979 24.9263 29.4969 24.9263C29.2841 24.9263 29.0704 24.9741 28.8725 25.0726L27.216 25.9201L26.2072 24.7566L27.306 23.2576C27.6238 22.8235 27.6669 22.246 27.4157 21.7707C26.991 20.9644 26.675 20.1076 26.4782 19.2207C26.3619 18.7013 25.9625 18.2916 25.446 18.1622L23.6366 17.7338L23.6216 16.1944L25.431 15.7651Z" fill="#243444"/>
</svg>
