<svg width="62" height="62" viewBox="0 0 62 62" fill="none" xmlns="http://www.w3.org/2000/svg">
<g clip-path="url(#clip0)">
<path d="M60.839 39.3872L60.5337 38.4438L54.7085 36.985C54.7444 36.4565 54.7607 35.926 54.7607 35.3905C54.7607 28.5987 51.8435 22.1187 46.7576 17.6116L44.3843 20.2893C48.7053 24.1177 51.1826 29.6222 51.1826 35.3905C51.1826 35.6278 51.1793 35.8641 51.1695 36.099L47.3872 35.1519C47.3336 31.439 46.0123 27.8334 43.6497 24.9707L40.8895 27.2489C42.5306 29.2358 43.529 31.6856 43.7606 34.2439L39.9056 33.2791C39.4894 31.5211 38.5624 29.9573 37.2909 28.7539L43.1519 8.30714L42.4891 7.57119C39.6479 4.41391 35.4638 2.60223 31.0113 2.60223C26.5588 2.60223 22.3761 4.41391 19.5348 7.57119L18.8716 8.30714L20.5239 14.0726C19.2272 14.713 17.9818 15.4765 16.8012 16.3602C12.8115 19.3431 9.80339 23.5943 8.33056 28.3284L11.7474 29.391C13.3732 24.162 16.9429 19.991 21.5245 17.5636L22.6049 21.3352C21.1974 22.1774 19.9096 23.2326 18.7956 24.4794L21.4635 26.8635C22.1169 26.1322 22.8473 25.4848 23.6355 24.9311L24.7317 28.7553C23.4672 29.9527 22.5429 31.5066 22.1244 33.254L18.2657 34.2094C18.398 32.732 18.7835 31.3076 19.4169 29.9597L16.1771 28.4393C15.1923 30.5381 14.6735 32.7804 14.6353 35.1076L1.48188 38.3637L1.17379 39.3061C-0.147563 43.3433 0.367929 47.8723 2.58744 51.7329C4.80694 55.5926 8.46153 58.3169 12.6148 59.2066L13.5843 59.414L17.7651 55.1027C21.6592 57.7217 26.2642 59.1386 31.0113 59.1386C32.65 59.1386 34.2865 58.9717 35.8763 58.6403L35.1464 55.1372C33.7962 55.4187 32.4058 55.5604 31.0113 55.5604C27.1111 55.5604 23.4313 54.4348 20.3113 52.4749L23.0188 49.6826C25.3842 51.0114 28.1108 51.7688 31.0113 51.7688V48.1907C29.0863 48.1907 27.2602 47.7637 25.6215 46.9979L28.3863 44.145C29.2173 44.3953 30.0987 44.53 31.0113 44.53C31.9155 44.53 32.7885 44.399 33.6139 44.152L48.374 59.4606L49.3434 59.2556C53.499 58.3779 57.162 55.663 59.3913 51.8094C61.6215 47.9557 62.1487 43.4282 60.839 39.3872ZM36.8844 42.3879C38.491 41.0381 39.6288 39.1462 40.0114 36.9943L57.6915 41.4207C58.3366 44.2546 57.8453 47.3368 56.2946 50.0177C54.743 52.6982 52.3171 54.6599 49.5378 55.5129L36.8844 42.3879ZM22.8711 9.27706C25.0011 7.29946 27.9151 6.18038 31.0113 6.18038C34.1089 6.18038 37.0229 7.29946 39.1515 9.27706L34.1303 26.7982C33.1571 26.4426 32.1061 26.2491 31.0113 26.2491C29.9164 26.2491 28.8654 26.4426 27.8922 26.7982L22.8711 9.27706ZM12.4312 55.4625C9.65425 54.6026 7.23292 52.6334 5.68971 49.9487C4.1465 47.2641 3.66223 44.1809 4.31569 41.349L22.0088 36.9696C22.3854 39.1234 23.5175 41.019 25.1218 42.3725L12.4312 55.4625ZM25.4495 35.3905C25.4495 32.3227 27.9449 29.8273 31.0113 29.8273C34.0791 29.8273 36.574 32.3227 36.574 35.3905C36.574 38.4569 34.0791 40.9519 31.0113 40.9519C27.9449 40.9523 25.4495 38.4569 25.4495 35.3905Z" fill="#243444"/>
</g>
<defs>
<clipPath id="clip0">
<rect width="61.0909" height="61.0909" fill="white" transform="translate(0.45459 0.454529)"/>
</clipPath>
</defs>
</svg>
