<svg width="120" height="120" viewBox="0 0 120 120" fill="none" xmlns="http://www.w3.org/2000/svg">
<path d="M85.8612 53.7765L68.3385 43.6254L50.9367 33.5952C49.2449 32.6284 47.3113 32.3867 45.6195 32.8701C43.9276 33.3535 42.3566 34.4411 41.3899 36.1329C41.0273 36.6163 40.9065 37.2206 40.6648 37.8248C40.5439 38.1873 40.5439 38.6707 40.4231 39.1541C40.4231 39.2749 40.4231 39.5166 40.4231 39.6375V60.1813V80.7251C40.4231 82.6586 41.269 84.4713 42.4775 85.6798C43.8068 87.0091 45.4986 87.7342 47.4322 87.7342C48.5198 87.7342 50.8158 86.7674 51.4201 86.4049L68.5802 76.4955H68.701L68.8219 76.3746L86.5863 66.1027C88.2781 65.136 89.3657 63.565 89.8491 61.7523C89.9699 61.3897 89.9699 60.9064 89.9699 60.423C89.9699 56.4351 85.8612 53.7765 85.8612 53.7765ZM83.4443 60.9064L65.9216 71.0574C65.8007 71.0574 65.6799 71.1783 65.6799 71.1783L48.5198 81.0876C48.3989 81.2085 47.7947 81.4502 47.553 81.4502C47.3113 81.4502 47.0696 81.3293 46.8279 81.2085C46.7071 81.0876 46.5862 80.7251 46.5862 80.4834V60.0604V39.6375V39.5166C46.5862 39.3958 46.5862 39.3958 46.5862 39.2749C46.5862 39.2749 46.5862 39.1541 46.7071 39.1541C46.7071 39.1541 46.8279 39.0333 46.8279 38.9124C46.9488 38.7916 47.1905 38.6707 47.3113 38.5499C47.553 38.5499 47.7947 38.5499 47.9155 38.5499C48.0364 38.6707 48.1572 38.6707 48.2781 38.7916L65.4382 48.7009C65.5591 48.8218 65.6799 48.8218 65.6799 48.8218H65.8007L83.3234 58.9728C83.5651 59.0937 84.0485 59.4562 84.0485 59.8187C84.0485 60.3021 83.6859 60.7855 83.4443 60.9064Z" fill="white"/>
<path d="M102.417 17.6435C90.8158 5.92145 75.4684 0 60.121 0C44.7735 0 29.4261 5.8006 17.7041 17.5227C5.982 29.3656 0.0605469 44.713 0.0605469 60.0604C0.0605469 75.4079 5.86115 90.7553 17.5832 102.477C29.3053 114.199 44.6527 120 60.0001 120C75.3476 120 90.695 114.199 102.417 102.477C114.139 90.7553 119.94 75.4079 119.94 60.0604C119.94 44.713 114.139 29.3656 102.417 17.6435ZM98.1874 98.1269C87.6738 108.64 73.8974 113.958 60.121 113.958C46.3445 113.958 32.5681 108.64 22.0545 98.1269C11.4201 87.6133 6.22369 73.8369 6.22369 60.0604C6.22369 46.284 11.5409 32.5076 22.0545 21.994C32.5681 11.4804 46.3445 6.16314 60.121 6.16314C73.8974 6.16314 87.6738 11.4804 98.1874 21.994C108.701 32.5076 114.018 46.284 114.018 60.0604C114.018 73.8369 108.822 87.6133 98.1874 98.1269Z" fill="white"/>
</svg>
