<svg width="60" height="60" viewBox="0 0 60 60" fill="none" xmlns="http://www.w3.org/2000/svg">
<path d="M45.471 44.5842C41.6312 44.5842 38.4651 47.683 38.4651 51.5901C38.4651 55.4298 41.5638 58.596 45.471 58.596C49.3107 58.596 52.4768 55.4972 52.4768 51.5901C52.4095 47.7503 49.3107 44.5842 45.471 44.5842Z" fill="white"/>
<path d="M57.7984 11.1716C57.6637 11.1716 57.4616 11.1042 57.2595 11.1042H14.8201L14.1465 6.59085C13.7423 3.62683 11.1824 1.40381 8.15106 1.40381H2.69457C1.21255 1.40381 0 2.61636 0 4.09837C0 5.58039 1.21255 6.79294 2.69457 6.79294H8.15106C8.48788 6.79294 8.75734 7.0624 8.8247 7.39922L13.0013 35.8269C13.5402 39.3972 16.6389 42.0918 20.2766 42.0918H48.3001C51.803 42.0918 54.8344 39.5993 55.5754 36.1637L59.9541 14.2704C60.2235 12.8557 59.2804 11.4411 57.7984 11.1716Z" fill="white"/>
<path d="M28.2929 51.2533C28.1581 47.5483 25.0594 44.5842 21.3544 44.5842C17.4472 44.7863 14.4832 48.0198 14.6179 51.8596C14.7527 55.5646 17.7841 58.5286 21.4891 58.5286H21.6238C25.4636 58.3265 28.495 55.093 28.2929 51.2533Z" fill="white"/>
</svg>
