<svg width="39" height="36" viewBox="0 0 39 36" fill="none" xmlns="http://www.w3.org/2000/svg">
<path d="M12.6903 28.6848H10.4862C9.93281 28.6848 9.48438 29.1183 9.48438 29.6534C9.48438 30.1885 9.93281 30.6221 10.4862 30.6221H12.6903C13.2437 30.6221 13.6922 30.1885 13.6922 29.6534C13.6922 29.1185 13.2437 28.6848 12.6903 28.6848Z" fill="white"/>
<path d="M35.3231 16.6021H22.3059V5.30602C22.3059 3.70372 20.9575 2.40002 19.3003 2.40002H3.87276C2.21555 2.40002 0.867188 3.70359 0.867188 5.30602V30.9108C0.867188 32.5131 2.21555 33.8168 3.87276 33.8168H18.2943C18.3596 33.8298 18.4275 33.8365 18.4968 33.8365H35.3231C36.612 33.8365 37.6608 32.8225 37.6608 31.5763V18.8624C37.6608 17.6161 36.6121 16.6021 35.3231 16.6021ZM35.1844 18.5395L26.8208 25.3359C26.63 25.491 26.2557 25.491 26.0648 25.3359L22.3059 22.2813V18.5395H35.1844V18.5395ZM3.87276 4.33735H19.3003C19.8528 4.33735 20.3022 4.77183 20.3022 5.30602V25.4456H2.8709V5.30602C2.8709 4.77183 3.32027 4.33735 3.87276 4.33735ZM2.8709 30.9108V27.3829H20.3022V30.9108C20.3022 31.445 19.8528 31.8794 19.3003 31.8794H3.87276C3.32027 31.8794 2.8709 31.4448 2.8709 30.9108ZM35.3231 31.8992H22.1265C22.2424 31.5904 22.3059 31.2577 22.3059 30.9108V24.8118L24.7755 26.8189C25.2431 27.1989 25.8428 27.3887 26.4429 27.3887C27.0427 27.3887 27.6427 27.1987 28.11 26.8189L35.657 20.686V31.5763C35.657 31.7513 35.5042 31.8992 35.3231 31.8992Z" fill="white"/>
</svg>
