<svg width="39" height="36" viewBox="0 0 39 36" fill="none" xmlns="http://www.w3.org/2000/svg">
<path d="M22.5362 18.3585H16.5225C10.6089 18.3585 5.79688 23.0105 5.79688 28.7288V35.5842H33.2619V28.7288C33.2619 23.0105 28.4498 18.3585 22.5362 18.3585ZM7.88061 33.5695V28.7288C7.88061 24.1212 11.7577 20.3732 16.5225 20.3732H22.5362C27.301 20.3732 31.1781 24.1212 31.1781 28.7288V33.5695H7.88061Z" fill="white"/>
<path d="M19.5283 1.20001C14.9552 1.20001 11.2344 4.79759 11.2344 9.21917C11.2344 13.6408 14.9552 17.2383 19.5283 17.2383C24.1014 17.2383 27.8223 13.6408 27.8223 9.21917C27.8223 4.79759 24.1014 1.20001 19.5283 1.20001ZM19.5283 15.2236C16.1041 15.2236 13.3181 12.53 13.3181 9.21917C13.3181 5.90835 16.1041 3.21471 19.5283 3.21471C22.9526 3.21471 25.7386 5.90835 25.7386 9.21917C25.7386 12.53 22.9526 15.2236 19.5283 15.2236Z" fill="white"/>
</svg>
