<svg width="25" height="23" viewBox="0 0 25 23" fill="none" xmlns="http://www.w3.org/2000/svg">
<path d="M11.5178 18.5085C18.5937 18.5085 22.4632 12.6464 22.4632 7.56319C22.4632 7.3967 22.4597 7.2309 22.4523 7.06601C23.2033 6.52296 23.8561 5.84529 24.3712 5.07394C23.6819 5.38044 22.94 5.58649 22.162 5.67971C22.9562 5.20328 23.566 4.44993 23.8536 3.55188C23.1103 3.99254 22.2871 4.31268 21.4109 4.48559C20.7089 3.73787 19.7094 3.27026 18.6027 3.27026C16.4785 3.27026 14.7556 4.99299 14.7556 7.11657C14.7556 7.4186 14.7894 7.71214 14.8554 7.99376C11.6582 7.83288 8.82299 6.30223 6.92586 3.97453C6.59563 4.54293 6.40506 5.20339 6.40506 5.90812C6.40506 7.24259 7.08421 8.421 8.11688 9.11013C7.48577 9.09076 6.89295 8.9175 6.37467 8.62912C6.3741 8.64528 6.3741 8.66099 6.3741 8.67819C6.3741 10.5413 7.70008 12.0968 9.46052 12.4493C9.13717 12.5372 8.79696 12.5846 8.44609 12.5846C8.19864 12.5846 7.95739 12.5603 7.72301 12.5152C8.21274 14.0437 9.63298 15.1559 11.3167 15.1871C10 16.2191 8.3414 16.8338 6.53875 16.8338C6.2287 16.8338 5.9222 16.8161 5.62109 16.7805C7.32363 17.8718 9.34529 18.5086 11.518 18.5086" fill="white"/>
</svg>
