<svg width="21" height="20" viewBox="0 0 21 20" fill="none" xmlns="http://www.w3.org/2000/svg">
<path fill-rule="evenodd" clip-rule="evenodd" d="M18.9004 10C18.9004 14.6944 15.0948 18.5 10.4004 18.5C5.70597 18.5 1.90039 14.6944 1.90039 10C1.90039 5.30558 5.70597 1.5 10.4004 1.5C15.0948 1.5 18.9004 5.30558 18.9004 10ZM20.4004 10C20.4004 15.5228 15.9232 20 10.4004 20C4.87754 20 0.400391 15.5228 0.400391 10C0.400391 4.47715 4.87754 0 10.4004 0C15.9232 0 20.4004 4.47715 20.4004 10ZM11.1504 4V12H9.65039V4H11.1504ZM11.4004 15C11.4004 15.5523 10.9527 16 10.4004 16C9.84811 16 9.40039 15.5523 9.40039 15C9.40039 14.4477 9.84811 14 10.4004 14C10.9527 14 11.4004 14.4477 11.4004 15Z" fill="#D9534F"/>
</svg>
