<svg width="60" height="60" viewBox="0 0 60 60" fill="none" xmlns="http://www.w3.org/2000/svg">
<path d="M30.0042 31.1565C38.5756 31.1565 45.5824 24.1497 45.5824 15.5783C45.5824 7.00677 38.5756 0 30.0042 0C21.4327 0 14.426 7.00677 14.426 15.5783C14.426 24.1497 21.4328 31.1565 30.0042 31.1565Z" fill="white"/>
<path d="M56.739 43.6054C56.3308 42.585 55.7866 41.6326 55.1744 40.7483C52.0451 36.1224 47.2153 33.0612 41.7731 32.3129C41.0929 32.2449 40.3446 32.3808 39.8003 32.789C36.9431 34.8979 33.5418 35.9863 30.0043 35.9863C26.4668 35.9863 23.0655 34.8979 20.2084 32.789C19.6641 32.3808 18.9158 32.1768 18.2356 32.3129C12.7934 33.0612 7.89548 36.1224 4.83428 40.7483C4.22204 41.6326 3.67777 42.6531 3.2697 43.6054C3.06566 44.0136 3.13363 44.4898 3.33767 44.898C3.88194 45.8504 4.56214 46.8028 5.17438 47.6191C6.12673 48.9117 7.14717 50.0681 8.30368 51.1565C9.25602 52.1088 10.3444 52.9932 11.433 53.8776C16.8071 57.8912 23.2697 60 29.9364 60C36.603 60 43.0657 57.8911 48.4397 53.8776C49.5282 53.0613 50.6166 52.1088 51.569 51.1565C52.6575 50.0681 53.7459 48.9115 54.6983 47.6191C55.3785 46.7347 55.9909 45.8504 56.5351 44.898C56.875 44.4898 56.943 44.0135 56.739 43.6054Z" fill="white"/>
</svg>
