<svg width="278" height="102" viewBox="0 0 278 102" fill="none" xmlns="http://www.w3.org/2000/svg">
<path d="M42.0925 12.3969L41.9013 10.2669L35.0326 15.3415L33.7057 11.9504L36.7876 9.09325L36.4195 7.25288L32.8838 9.85354L31.5997 6.56802L37.0188 2.43774L36.7534 0.340923L30.6808 4.22682L29.0257 0L27.2364 0.784418L28.8916 5.00822L22 6.80033L23.2128 8.48382L29.8104 7.35244L31.0974 10.6349L26.8569 11.4375L27.83 13.0184L31.9193 12.7348L33.2462 16.1229L24.9992 17.6706L26.289 19.3179L34.1651 18.4701L35.5662 22.0453L31.5597 22.3711L32.5071 23.9611L36.3852 24.133L38.9022 30.5562L37.9462 33L43 30.7855L40.6885 29.7748L38.1716 23.3486L40.8027 20.3316L40.406 18.4973L37.3555 21.2608L35.9543 17.6887L42.0925 12.3969Z" fill="white"/>
<path d="M54.0371 89.602L54.2556 91.7322L62.1023 86.6601L63.6188 90.0516L60.0966 92.9059L60.5206 94.7495L64.5581 92.1486L66.0257 95.4314L59.8357 99.5651L60.1358 101.662L67.0791 97.7758L68.9706 102L71.0155 101.219L69.1207 96.9943L77 95.199L75.6107 93.5184L68.0705 94.6499L66.5997 91.3641L71.446 90.5615L70.3371 88.9834L65.6604 89.2671L64.1439 85.8787L73.5691 84.3308L72.095 82.6834L63.0938 83.5312L61.4925 79.9557L66.0713 79.6269L64.9886 78.0368L60.5597 77.8678L57.68 71.441L58.7758 69L53 71.2147L55.6384 72.2255L58.5149 78.6493L55.5112 81.6696L55.9613 83.5011L59.4509 80.7402L61.0489 84.3127L54.0371 89.602Z" fill="white"/>
<path d="M12.3999 56.037L10.2699 56.2554L15.3415 64.1011L11.9504 65.6207L9.09325 62.0957L7.24986 62.5196L9.85354 66.5598L6.57104 68.0304L2.43774 61.8348L0.340923 62.138L4.22381 69.0804L0 70.9685L0.784421 73.0098L5.00823 71.1217L6.80335 79L8.48382 77.6076L7.35244 70.0717L10.6349 68.6011L11.4375 73.4467L13.0184 72.338L12.7348 67.662L16.1229 66.1456L17.6676 75.5696L19.3179 74.0956L18.4701 65.0956L22.0422 63.4946L22.3741 68.0728L23.9611 66.9902L24.133 62.5587L30.5592 59.6826L33 60.775L30.7885 55L29.7778 57.6413L23.3486 60.5174L20.3316 57.5141L18.4973 57.9641L21.2608 61.45L17.6887 63.0511L12.3999 56.037Z" fill="white"/>
<path d="M87.605 44.0031L89.7352 43.7937L84.6632 36.2781L88.0516 34.8219L90.9089 38.1969L92.7525 37.7938L90.1486 33.9219L93.4344 32.5125L97.5681 38.45L99.6651 38.1594L95.7758 31.5094L100 29.6937L99.2185 27.7375L94.9974 29.55L93.2021 22L91.5214 23.3312L92.6499 30.5531L89.3641 31.9656L88.5645 27.3219L86.9835 28.3844L87.2671 32.8656L83.8787 34.3187L82.3308 25.2875L80.6834 26.7L81.5312 35.3281L77.9557 36.8594L77.6269 32.4719L76.0368 33.5094L75.8678 37.7562L69.441 40.5094L67 39.4656L69.2147 45L70.2255 42.4687L76.6523 39.7125L79.6696 42.5906L81.5011 42.1594L78.7402 38.8156L82.3127 37.2844L87.605 44.0031Z" fill="white"/>
<path d="M19.3179 26.7L17.6676 25.2875L16.1229 34.3187L12.7348 32.8656L13.0184 28.3844L11.4375 27.3219L10.6349 31.9656L7.35244 30.5562L8.48382 23.3344L6.80335 22L5.00823 29.55L0.784421 27.7375L0 29.6937L4.22381 31.5094L0.340923 38.1594L2.43774 38.45L6.57104 32.5125L9.85354 33.9219L7.24986 37.7938L9.09325 38.1969L11.9504 34.8219L15.3415 36.2781L10.2699 43.7937L12.3999 44.0031L17.6887 37.2844L21.2608 38.8156L18.5003 42.1594L20.3316 42.5906L23.3486 39.7125L29.7778 42.4687L30.7885 45L33 39.4656L30.5592 40.5094L24.133 37.7562L23.9611 33.5094L22.3741 32.4719L22.0422 36.8594L18.4701 35.3281L19.3179 26.7Z" fill="white"/>
<path d="M80.6834 74.0956L82.3308 75.5696L83.8787 66.1456L87.2671 67.662L86.9835 72.338L88.5645 73.4467L89.3641 68.6011L92.6499 70.0717L91.5214 77.6076L93.2021 79L94.9974 71.1217L99.2185 73.0098L100 70.9685L95.7758 69.0804L99.6651 62.138L97.5681 61.8348L93.4344 68.0304L90.1486 66.5598L92.7525 62.5196L90.9089 62.0957L88.0516 65.6207L84.6632 64.1011L89.7352 56.2554L87.605 56.037L82.3127 63.0511L78.7402 61.45L81.5011 57.9641L79.6696 57.5141L76.6523 60.5174L70.2255 57.6413L69.2147 55L67 60.775L69.441 59.6826L75.8678 62.5587L76.0368 66.9902L77.6269 68.0728L77.9557 63.4946L81.5312 65.0924L80.6834 74.0956Z" fill="white"/>
<path d="M26.289 82.6834L24.9992 84.3308L33.2462 85.8787L31.9193 89.2671L27.83 88.9834L26.8569 90.5615L31.0974 91.3641L29.8104 94.6499L23.2128 93.5184L22 95.199L28.8916 96.9943L27.2364 101.219L29.0257 102L30.6808 97.7788L36.7534 101.662L37.0188 99.5651L31.5997 95.4314L32.8838 92.1486L36.4195 94.7495L36.7876 92.9059L33.7057 90.0516L35.0326 86.6601L41.9013 91.7322L42.0925 89.602L35.9543 84.3127L37.3555 80.7402L40.406 83.5011L40.8027 81.6696L38.1716 78.6493L40.6885 72.2255L43 71.2147L37.9462 69L38.9022 71.441L36.3852 77.8678L32.5071 78.0368L31.5597 79.6269L35.5662 79.9557L34.168 83.5312L26.289 82.6834Z" fill="white"/>
<path d="M72.0956 19.3179L73.5696 17.6706L64.1456 16.1229L65.662 12.7348L70.338 13.0184L71.4467 11.4375L66.6011 10.6349L68.0717 7.35244L75.6109 8.4808L77 6.80033L69.1217 5.00822L71.0163 0.784418L68.9717 0L67.0772 4.22682L60.138 0.340923L59.838 2.43774L66.0272 6.56802L64.5598 9.85354L60.5228 7.25288L60.0989 9.09325L63.6207 11.9504L62.1044 15.3415L54.2587 10.2669L54.0402 12.3969L61.0511 17.6887L59.4533 21.2608L55.9641 18.5003L55.5141 20.3316L58.5174 23.3486L55.6413 29.7748L53 30.7855L58.7783 33L57.6826 30.5562L60.562 24.133L64.9902 23.9611L66.0728 22.3711L61.4946 22.0422L63.0956 18.4701L72.0956 19.3179Z" fill="white"/>
<path d="M56.2452 23.7219L57 21.9893L50.0973 23.0639V21.6133L53.2328 20.8614L53.655 19.2573L50.0973 19.8056V18.4333L55.3608 17.556L56.0092 15.8454L50.0973 16.472V14H47.8994V16.472L41.9875 15.8454L42.6326 17.556L47.8994 18.4333V19.8056L44.3416 19.2541L44.7606 20.8583L47.8994 21.6102V23.0608L41 21.9987L41.7548 23.7313L47.9061 25.0315V26.5604L44.6575 25.8054L45.0499 27.4283L47.8994 28.3682V29.5463L45.8379 31H52.1554L50.0973 29.5463V28.3588L52.9435 27.4189L53.3358 25.796L50.0973 26.5417V25.0127L56.2452 23.7219Z" fill="white"/>
<path d="M41.7481 78.2705L41 80.0207L47.9061 78.9448V80.3971L44.7672 81.1498L44.3483 82.7526L47.9061 82.2037V83.5775L42.6392 84.4557L41.9975 86.1526L47.9094 85.5253V88H50.1072V85.5253L56.0191 86.1526L55.3707 84.44L50.1072 83.5618V82.188L53.665 82.7369L53.2427 81.1341L50.1072 80.3814V78.9291L57 80.0207L56.2452 78.2862L50.0973 76.9814V75.4539L53.3358 76.2004L52.9435 74.5757L50.0973 73.6347V72.4554L52.1554 71H45.8379L47.8994 72.4554V73.6347L45.0499 74.5757L44.6575 76.1847L47.8994 75.4382V76.9657L41.7481 78.2705Z" fill="white"/>
<path d="M21.7143 43.7553L19.9782 43C19.9782 43 20.9559 49.2749 21.0531 49.907H19.6022L18.8501 46.7696L17.2488 46.3471C17.2488 46.3471 17.7095 49.3414 17.7972 49.907H16.4247L15.5473 44.6403L13.8363 43.9748C13.8363 43.9748 14.4066 49.2982 14.463 49.8904H12V52.0896H14.4724C14.4066 52.6885 13.8457 58.0052 13.8457 58.0052L15.5567 57.3597C15.5567 57.3597 16.3589 52.5454 16.4341 52.0896H17.8066L17.2582 55.6529L18.8595 55.2304L19.6116 52.0896H21.0625C20.9653 52.7251 19.9876 59 19.9876 59L21.7237 58.2447C21.7237 58.2447 22.9301 52.5288 23.021 52.0896H24.5534L23.8044 55.3335L25.4276 54.9409L26.3677 52.0896H27.546L29 54.1524V47.8309L27.546 49.8904H26.3677L25.4276 47.0424L23.8044 46.6498L24.5534 49.8904H23.021C22.9207 49.4712 21.7143 43.7553 21.7143 43.7553Z" fill="white"/>
<path d="M77.4104 58.2448L78.9417 59C78.9417 59 78.0777 52.7251 77.9919 52.0896H79.274L79.9385 55.2304L81.3535 55.6529L80.8689 52.0896H82.0818C82.1482 52.5454 82.8599 57.3597 82.8599 57.3597L84.369 58.0085C84.369 58.0085 83.8651 52.6852 83.8152 52.0896H86V49.8904H83.8152C83.8734 49.2915 84.369 43.9748 84.369 43.9748L82.8599 44.6403L82.0818 49.907H80.8689C80.9465 49.3414 81.3535 46.3471 81.3535 46.3471L79.9385 46.7696L79.274 49.907H77.9919C78.0777 49.2749 78.9417 43 78.9417 43L77.4104 43.7552C77.4104 43.7552 76.3443 49.4712 76.2612 49.907H74.9099L75.5689 46.6665L74.1373 47.0591L73.3066 49.907H72.2848L71 47.8476V54.1691L72.2848 52.1063H73.326L74.1567 54.9576L75.5883 55.3502C75.5883 55.3502 75.0484 52.6885 74.9293 52.1063H76.2806C76.3443 52.5321 77.4104 58.2448 77.4104 58.2448Z" fill="white"/>
<path d="M35.6476 27.579L34.9468 25.799C34.9468 25.799 31.5522 30.8191 31.2079 31.323L30.2146 30.2667C30.4004 29.9275 31.7381 27.5628 31.7381 27.5628L30.9093 26.1059L28.9805 28.9519L28.0298 27.9537C28.2705 27.5822 30.8362 23.6928 30.8362 23.6928L30.0805 22C30.0805 22 27.0333 26.0704 26.686 26.5226L24.9826 24.7265L24.7846 24.9332L23.5657 26.2254L25.266 28.028L21 31.6267L22.5937 32.4279L26.6098 29.4494L27.5544 30.4508L24.8699 32.4957L26.2472 33.3744L28.7946 31.7592L29.794 32.8155L24.5804 36.7793L26.2624 37.5223L31.1378 34.2466L32.1891 35.3579L29.5777 37.0409L30.9459 37.9551L33.4323 36.663C33.6731 36.9214 34.0661 37.3413 34.2429 37.5223L33.9046 40L38 35.6583L35.6476 36.0459C35.477 35.8618 35.0808 35.4386 34.8371 35.1834C34.9894 34.8604 36.0559 32.5506 36.0559 32.5506L35.1966 31.0969L33.6091 33.8686L32.5578 32.7541C32.7772 32.3988 35.6476 27.579 35.6476 27.579Z" fill="white"/>
<path d="M64.3375 75.7348L65.0424 77.4146L68.7835 72.2012L69.7844 73.1982L68.2587 75.753L69.0887 77.1281L71.0203 74.4421C71.2888 74.7104 71.7618 75.1799 71.9632 75.3841L69.1528 79.4024L69.9095 81L73.3089 76.7317L75.0117 78.4329L75.21 78.2348L76.4306 77.0153L74.7279 75.314L79 71.9177L77.4041 71.1585L73.3822 73.9695L72.4362 73.0274L75.1246 71.0976L73.7453 70.2683L71.1912 71.7927C70.9959 71.5945 70.4741 71.0701 70.1933 70.7927L75.4145 67.0549L73.73 66.3506L68.8476 69.4421L67.7948 68.3933L70.41 66.8049L69.0643 65.9299L66.5742 67.1494L65.7625 66.3384L66.1012 64L62 68.0976L64.3375 67.7622L65.1492 68.5732L63.9438 71.061L64.8043 72.4299L66.3942 69.8171L67.447 70.8689C67.212 71.2012 64.3375 75.7348 64.3375 75.7348Z" fill="white"/>
<path d="M26.2586 66.3471L24.5809 67.0513C24.5809 67.0513 29.3097 70.447 29.7908 70.7884L28.792 71.7852L26.2434 70.2611L24.8671 71.0902L27.5527 73.0197L26.6088 73.9616L22.5925 71.1542L21 71.9102L25.2629 75.3059L23.5669 77.016L23.7618 77.2141L24.9798 78.4334L26.6758 76.7325L30.0679 81L30.8261 79.4058L28.0186 75.3852L28.9626 74.4432C29.2671 74.873 30.887 77.1287 30.887 77.1287L31.7183 75.7509L30.1958 73.2026C30.3906 73.0045 30.9113 72.4802 31.1915 72.2028L34.9246 77.4183L35.628 75.7357C35.628 75.7357 32.7596 71.203 32.5373 70.8585C32.7414 70.6573 33.2894 70.1087 33.5879 69.8069L35.1743 72.4192L36.033 71.0506L34.8576 68.5693L35.6676 67.7615L38 68.0968L33.9015 64L34.2486 66.3471L33.4387 67.158L30.954 65.9387L29.5868 66.8013L32.1963 68.3895L31.1458 69.4411L26.2586 66.3471Z" fill="white"/>
<path d="M73.7311 37.3821L75.4082 36.5981L70.2032 32.4191C70.4802 32.1089 71.0007 31.5226 71.1986 31.3045L73.7463 33.0088L75.1191 32.0816L72.4374 29.9239L73.381 28.8707L77.405 31.9998L79 31.1545L74.7386 27.3572L76.4371 25.4552L76.2423 25.2336L75.0247 23.8701C75.0247 23.8701 73.6641 25.3972 73.3262 25.7722L69.9384 21L69.1835 22.7827L71.9869 27.2754L71.0433 28.3321L69.1166 25.329L68.2734 26.8595L69.7953 29.7092L68.797 30.8272L65.0469 24.995L64.3468 26.8766C64.3468 26.8766 67.2172 31.9453 67.4333 32.3305L66.3832 33.5065C66.1001 32.9815 64.7973 30.5852 64.7973 30.5852L63.9389 32.1021C63.9389 32.1021 64.9952 34.5427 65.1413 34.887L64.3346 35.7937L62 35.4187L66.091 40L65.7561 37.3855L66.5658 36.4788L69.0496 37.8253L70.4041 36.8742L67.7955 35.0983L68.8457 33.9223L73.7311 37.3821Z" fill="white"/>
<path d="M69 51C69 54.5601 67.8857 58.0402 65.7979 61.0003C63.7102 63.9603 60.7428 66.2674 57.271 67.6298C53.7992 68.9922 49.9789 69.3487 46.2933 68.6541C42.6076 67.9596 39.2222 66.2453 36.565 63.7279C33.9078 61.2106 32.0982 58.0033 31.3651 54.5116C30.632 51.02 31.0082 47.4008 32.4463 44.1117C33.8844 40.8226 36.3196 38.0114 39.4442 36.0335C42.5687 34.0557 46.2422 33 50 33C55.0391 33 59.8718 34.8964 63.435 38.2721C66.9982 41.6477 69 46.2261 69 51Z" fill="white"/>
<path d="M67 50.9969C67.0006 54.5572 66.004 58.0377 64.1362 60.9983C62.2685 63.9589 59.6135 66.2665 56.507 67.6292C53.4005 68.992 49.9821 69.3487 46.6842 68.6543C43.3862 67.9598 40.3569 66.2454 37.9792 63.7279C35.6015 61.2104 33.9824 58.0028 33.3265 54.5109C32.6707 51.0189 33.0076 47.3994 34.2946 44.1102C35.5817 40.821 37.7611 38.0099 40.5572 36.0322C43.3532 34.0546 46.6404 32.9994 50.003 33C54.5106 33.0008 58.8334 34.8972 62.0208 38.2721C65.2082 41.647 66.9992 46.224 67 50.9969Z" fill="#D2232A"/>
<path d="M40 40H47.2217L50.0171 53.3928L52.8124 40H60V62H55.5223V45.2377L52.0239 62H47.9761L44.4805 45.2377V62H40V40Z" fill="white"/>
<path d="M113.616 38.2457H122.456L125.822 51.7912L129.21 38.2457H138.013V60.5132H132.526V43.5252L128.274 60.5132H123.324L119.103 43.5252V60.5132H113.616V38.2457Z" fill="white"/>
<path d="M156.703 60.5132H163.736L155.584 38.2457H148.233L140.109 60.5132H146.973L148.023 56.8521H155.625L156.703 60.5132ZM149.475 52.0318L151.841 44.0192L154.236 52.0318H149.478" fill="white"/>
<path d="M162.266 38.2457H182.656V43.7374H175.798V60.5132H169.088V43.7374H162.266V38.2457Z" fill="white"/>
<path d="M185.71 38.2457H192.42V46.0556H199.724V38.2457H206.437V60.5132H199.724V51.5093H192.42V60.5132H185.71V38.2457Z" fill="white"/>
<path d="M210.884 38.2457H228.866V42.99H217.596V46.5022H228.052V51.0596H217.596V55.4713H229.199V60.5132H210.884V38.2457Z" fill="white"/>
<path d="M247.233 51.3984L253.129 53.2227C252.808 54.7499 252.173 56.1923 251.265 57.457C250.443 58.5672 249.355 59.4497 248.103 60.0223C246.846 60.5987 245.243 60.8869 243.295 60.8869C240.942 60.8869 239.019 60.5364 237.525 59.8354C236.031 59.1345 234.742 57.8993 233.659 56.13C232.572 54.3586 232.029 52.0931 232.031 49.3335C232.031 45.6513 232.984 42.8211 234.888 40.8427C236.793 38.8644 239.492 37.8762 242.987 37.8784C245.721 37.8784 247.869 38.4463 249.43 39.5822C250.99 40.7181 252.149 42.4632 252.905 44.8173L247.019 46.1665C246.875 45.6397 246.657 45.1364 246.372 44.6717C246.005 44.1643 245.526 43.75 244.973 43.4618C244.413 43.1729 243.792 43.0262 243.163 43.0343C242.466 43.0052 241.775 43.1639 241.159 43.4941C240.544 43.8242 240.027 44.3138 239.662 44.9124C239.046 45.8456 238.739 47.3045 238.741 49.2892C238.741 51.7532 239.105 53.4422 239.832 54.3565C240.559 55.2707 241.585 55.7278 242.911 55.7278C244.183 55.7278 245.149 55.3583 245.809 54.6193C246.469 53.8804 246.944 52.8067 247.233 51.3984Z" fill="white"/>
<path d="M257.022 55.8925C257.915 57.5246 259.274 58.8487 260.922 59.6929C262.525 60.491 264.549 60.8901 266.994 60.8901C269.405 60.8901 271.415 60.4277 273.022 59.5029C274.606 58.6006 275.892 57.2479 276.718 55.6138C277.572 53.9479 278 51.8144 278 49.2132C278 45.6239 277.025 42.8379 275.074 40.8554C273.123 38.8728 270.343 37.8783 266.733 37.872C263.203 37.872 260.454 38.8844 258.487 40.9092C256.519 42.934 255.533 45.7632 255.529 49.3969C255.529 51.9981 256.027 54.1633 257.022 55.8925ZM263.465 44.5703C263.86 44.091 264.359 43.7093 264.923 43.4546C265.488 43.1999 266.103 43.0788 266.721 43.1008C267.349 43.0731 267.976 43.1889 268.554 43.4396C269.132 43.6902 269.646 44.0691 270.058 44.5481C270.877 45.5109 271.288 47.0385 271.29 49.1308C271.29 51.6138 270.896 53.3345 270.108 54.2931C269.321 55.2517 268.206 55.7309 266.765 55.7309C266.139 55.7579 265.515 55.6394 264.941 55.3846C264.368 55.1297 263.861 54.7455 263.458 54.2614C262.648 53.2839 262.242 51.674 262.242 49.4317C262.242 47.1894 262.65 45.569 263.465 44.5703Z" fill="white"/>
</svg>
