<svg width="60" height="60" viewBox="0 0 60 60" fill="none" xmlns="http://www.w3.org/2000/svg">
<path d="M14.9052 12.8059L14.9343 13.0734H15.2034H57.6562C58.2715 13.0734 58.854 13.3506 59.2421 13.828C59.6302 14.3054 59.7826 14.9322 59.6569 15.5345L57.9214 23.8548L58.2151 23.9161L57.9214 23.8548C57.7204 24.8187 56.8705 25.4817 55.9232 25.4817C55.7849 25.4817 55.6446 25.4676 55.5036 25.4382L55.5035 25.4381C54.3985 25.2077 53.6896 24.1251 53.9201 23.0202L55.0669 17.5222L55.1422 17.1609H54.7732H15.7137H15.3792L15.4154 17.4934L17.5073 36.7122L17.5365 36.9797H17.8056H45.9763C48.3727 36.9797 50.6576 35.3889 51.686 33.0457C52.1397 32.0122 53.3454 31.5421 54.3789 31.9957C55.4124 32.4494 55.8825 33.655 55.4288 34.6886C53.7252 38.5699 50.0108 41.0672 45.9763 41.0672H16.0547C14.5967 41.0672 13.4109 42.2529 13.4109 43.7109C13.4109 43.7281 13.4107 43.7453 13.4103 43.7623L13.4101 43.7695L13.4103 43.7768C13.4107 43.7938 13.4109 43.8109 13.4109 43.8281C13.4109 45.2862 14.5967 46.4719 16.0547 46.4719H46.7579C50.4047 46.4719 53.372 49.4393 53.372 53.0859C53.372 56.7326 50.4047 59.7 46.7579 59.7C43.1112 59.7 40.1439 56.7326 40.1439 53.0859C40.1439 52.3407 40.2677 51.6244 40.4955 50.9562L40.6309 50.5594H40.2116H30.101H29.6817L29.8171 50.9562C30.045 51.6244 30.1687 52.3407 30.1687 53.0859C30.1687 56.7326 27.2015 59.7 23.5547 59.7C19.9079 59.7 16.9406 56.7326 16.9406 53.0859C16.9406 52.3407 17.0644 51.6244 17.2923 50.9562L17.4276 50.5594H17.0084H16.0547C12.3433 50.5594 9.32344 47.5395 9.32344 43.8281C9.32344 43.8109 9.32364 43.7938 9.32405 43.7768L9.32423 43.7695L9.32405 43.7623C9.32364 43.7453 9.32344 43.7281 9.32344 43.7109C9.32344 40.9882 10.949 38.6364 13.2824 37.5774L13.4801 37.4876L13.4566 37.2717L10.6707 11.6778L10.6708 11.6778L10.6698 11.6704C10.1121 7.51617 6.53773 4.3875 2.34375 4.3875C1.21498 4.3875 0.3 3.47252 0.3 2.34375C0.3 1.21498 1.21498 0.3 2.34375 0.3C8.5891 0.3 13.9126 4.97026 14.7257 11.1622L14.7315 11.2102L14.9052 12.8059ZM49.2844 53.0859C49.2844 51.6925 48.1513 50.5594 46.7578 50.5594C45.3644 50.5594 44.2312 51.6925 44.2312 53.0859C44.2312 54.4794 45.3644 55.6125 46.7578 55.6125C48.1513 55.6125 49.2844 54.4794 49.2844 53.0859ZM26.0812 53.0859C26.0812 51.6926 24.9482 50.5594 23.5547 50.5594C22.1612 50.5594 21.0281 51.6925 21.0281 53.0859C21.0281 54.4794 22.1612 55.6125 23.5547 55.6125C24.9481 55.6125 26.0812 54.4794 26.0812 53.0859Z" fill="#243444" stroke="white" stroke-width="0.6"/>
</svg>
